<svg width="75" height="75" viewBox="0 0 75 75" fill="none" xmlns="http://www.w3.org/2000/svg">
<path d="M37.5648 74.3719C58.1021 74.3719 74.7508 57.7232 74.7508 37.1859C74.7508 16.6487 58.1021 0 37.5648 0C17.0276 0 0.378906 16.6487 0.378906 37.1859C0.378906 57.7232 17.0276 74.3719 37.5648 74.3719Z" fill="#627EEA"/>
<path d="M38.7278 9.29651V29.9115L56.1517 37.6973L38.7278 9.29651Z" fill="white" fill-opacity="0.602"/>
<path d="M38.7231 9.29651L21.2969 37.6973L38.7231 29.9115V9.29651Z" fill="white"/>
<path d="M38.7278 51.0563V65.0638L56.1633 40.9418L38.7278 51.0563Z" fill="white" fill-opacity="0.602"/>
<path d="M38.7231 65.0638V51.054L21.2969 40.9418L38.7231 65.0638Z" fill="white"/>
<path d="M38.7278 47.8141L56.1517 37.6972L38.7278 29.916V47.8141Z" fill="white" fill-opacity="0.2"/>
<path d="M21.2969 37.6972L38.7231 47.8141V29.916L21.2969 37.6972Z" fill="white" fill-opacity="0.602"/>
</svg>
