<svg width="38" height="38" viewBox="0 0 38 38" fill="none" xmlns="http://www.w3.org/2000/svg">
<rect width="38" height="38" rx="10" fill="white"/>
<path opacity="0.4" d="M30.2379 23.8054C30.2379 27.0101 27.6649 29.6062 24.4601 29.6176H24.4486H13.0654C9.87211 29.6176 7.26465 27.0331 7.26465 23.8284V23.8169C7.26465 23.8169 7.27154 18.7329 7.28073 16.176C7.28188 15.6959 7.83323 15.4271 8.20885 15.7257C10.9381 17.8909 15.8187 21.8389 15.8796 21.8906C16.6952 22.5442 17.729 22.9129 18.7857 22.9129C19.8425 22.9129 20.8763 22.5442 21.6919 21.878C21.7527 21.8377 26.5243 18.0081 29.2948 15.8073C29.6716 15.5075 30.2253 15.7763 30.2264 16.2552C30.2379 18.7926 30.2379 23.8054 30.2379 23.8054Z" fill="#0328EE"/>
<path d="M29.6367 12.0127C28.6419 10.1381 26.6846 8.94116 24.5297 8.94116H13.066C10.9112 8.94116 8.95384 10.1381 7.9591 12.0127C7.73626 12.4319 7.84194 12.9546 8.21296 13.2509L16.7417 20.0728C17.3391 20.5553 18.0627 20.7954 18.7864 20.7954C18.791 20.7954 18.7944 20.7954 18.7979 20.7954C18.8013 20.7954 18.8059 20.7954 18.8093 20.7954C19.533 20.7954 20.2567 20.5553 20.854 20.0728L29.3828 13.2509C29.7538 12.9546 29.8595 12.4319 29.6367 12.0127Z" fill="#0328EE"/>
</svg>
