<svg width="75" height="75" viewBox="0 0 75 75" fill="none" xmlns="http://www.w3.org/2000/svg">
<path d="M37.4384 74.3719C57.9756 74.3719 74.6243 57.7232 74.6243 37.1859C74.6243 16.6487 57.9756 0 37.4384 0C16.9011 0 0.252441 16.6487 0.252441 37.1859C0.252441 57.7232 16.9011 74.3719 37.4384 74.3719Z" fill="#C3A634"/>
<path fill-rule="evenodd" clip-rule="evenodd" d="M31.0424 33.9555H41.0687V39.2684H31.0424V50.466H37.3664C39.8694 50.466 41.917 50.129 43.5113 49.4504C45.1057 48.774 46.3561 47.8374 47.2648 46.6382C48.1942 45.3911 48.8269 43.9484 49.1148 42.4199C49.4506 40.6958 49.6141 38.9425 49.6028 37.186C49.6141 35.4295 49.4506 33.6762 49.1148 31.9521C48.8272 30.4235 48.1945 28.9807 47.2648 27.7338C46.3561 26.5345 45.1034 25.5979 43.5113 24.9216C41.917 24.243 39.8694 23.906 37.3664 23.906H31.0424V33.9578V33.9555ZM24.6139 39.2684H21.1696V33.9578H24.6139V18.593H39.8346C42.6468 18.593 45.0801 19.0811 47.137 20.0502C49.1938 21.024 50.8718 22.3511 52.1756 24.0361C53.4772 25.7188 54.4463 27.6896 55.0808 29.9463C55.7153 32.2031 56.0314 34.6178 56.0314 37.186C56.0473 39.6315 55.7267 42.0675 55.0785 44.4256C54.4463 46.68 53.4772 48.6532 52.1733 50.3359C50.8718 52.0208 49.1938 53.3479 47.137 54.3217C45.0801 55.2932 42.6444 55.7789 39.8346 55.7789H24.6139V39.2684Z" fill="white"/>
</svg>
