<svg width="55" height="55" viewBox="0 0 55 55" fill="none" xmlns="http://www.w3.org/2000/svg">
<rect width="55" height="55" rx="10" fill="#0228EE"/>
<path d="M27.2073 22.1428L25.3961 24.4313C25.3888 24.4401 25.3815 24.4503 25.3743 24.459L20.4805 30.6415L19.7742 31.5347L31.6603 33.1474L39.2686 23.7891L30.5569 22.5996L27.2073 22.1428ZM30.9042 26.0236C31.1582 26.028 31.3771 26.0689 31.5493 26.1418C31.7201 26.2148 31.8456 26.3184 31.9113 26.4498C32.0427 26.7125 31.9478 27.0993 31.6486 27.5123C31.3071 27.9852 30.751 28.4303 30.0855 28.7631C28.68 29.468 27.4044 29.3688 27.1388 28.8404C27.0074 28.5777 27.1037 28.191 27.4015 27.7779C27.7444 27.3051 28.2991 26.8599 28.9646 26.5271C29.6141 26.2017 30.2854 26.0236 30.8605 26.0236H30.9042Z" fill="white"/>
<path d="M39.7149 24.1586L32.111 33.511L36.4311 44.79L43.8599 35.9703L39.7149 24.1586ZM36.574 34.1401C36.5449 34.9034 36.1508 35.5353 35.6983 35.5353H35.6809C35.4109 35.5251 35.2255 35.2843 35.1394 35.1427C34.9701 34.8625 34.8811 34.4728 34.8971 34.0758C34.9263 33.3125 35.3248 32.6806 35.7713 32.6806H35.7903C36.2442 32.6981 36.6033 33.3665 36.574 34.1401ZM38.7414 39.1855C38.7123 39.9488 38.3138 40.5823 37.8657 40.5823C37.8599 40.5823 37.8541 40.5808 37.8482 40.5808C37.5767 40.5706 37.3929 40.3298 37.3068 40.1882C37.1375 39.9065 37.0484 39.5183 37.0645 39.1213C37.0936 38.358 37.4921 37.726 37.9387 37.726H37.9577C38.4116 37.7435 38.7706 38.412 38.7414 39.1855ZM40.1834 30.0666C40.1688 30.4636 40.0506 30.8445 39.8609 31.1116C39.7645 31.2444 39.5704 31.4619 39.3077 31.4619H39.2902C39.0202 31.4517 38.8348 31.2108 38.7487 31.0693C38.5794 30.7876 38.4904 30.3994 38.5064 30.0024C38.5357 29.2391 38.9341 28.6071 39.3821 28.6071H39.3997C39.855 28.6246 40.2141 29.2931 40.1834 30.0666ZM41.475 36.5073H41.4575C41.1875 36.4971 41.0022 36.2563 40.916 36.1147C40.7468 35.8331 40.6578 35.4448 40.6738 35.0479C40.703 34.2845 41.1015 33.6526 41.548 33.6526H41.567C42.0209 33.6701 42.3799 34.3385 42.3507 35.1121C42.3216 35.8754 41.9231 36.5073 41.475 36.5073Z" fill="white"/>
<path d="M19.6897 32.1097L24.0346 43.377L35.9018 45L31.5831 33.724L19.6897 32.1097ZM25.8794 37.6237C25.7276 37.8178 25.0679 37.758 24.3805 37.2209C23.6931 36.6853 23.4756 36.0591 23.6274 35.865C23.6799 35.7979 23.788 35.7629 23.9295 35.7629C23.9909 35.7629 24.0594 35.7702 24.131 35.7833C24.4418 35.8402 24.8038 36.0168 25.1249 36.2678C25.4474 36.5189 25.7058 36.8268 25.8371 37.1144C25.9378 37.3376 25.9538 37.5274 25.8794 37.6237ZM31.0037 41.8854C30.9292 41.9818 30.7395 42.0124 30.5002 41.9672C30.1893 41.9102 29.8273 41.7336 29.5062 41.4826C29.1837 41.2316 28.9254 40.9236 28.794 40.6361C28.6933 40.4143 28.6773 40.2231 28.7517 40.1267C28.8043 40.0596 28.9122 40.0246 29.0538 40.0246C29.1151 40.0246 29.1837 40.0319 29.2552 40.045C29.5661 40.1019 29.928 40.2785 30.2506 40.5296C30.8008 40.9587 31.049 41.4447 31.049 41.722C31.049 41.7906 31.0343 41.846 31.0037 41.8854Z" fill="white"/>
<path d="M24.7794 24.2784L21.3028 20.5085L11.1448 22.7474L18.6173 30.5995L20.0856 30.2083L24.7794 24.2784ZM21.513 24.042C21.5685 23.8654 21.7728 23.7851 21.8895 23.753C21.9888 23.7253 22.0997 23.7121 22.2165 23.7121C22.3843 23.7121 22.5624 23.7399 22.7361 23.7939C23.0309 23.8873 23.2906 24.0522 23.4512 24.2478C23.5285 24.3412 23.6497 24.5236 23.5942 24.7002H23.5928C23.5373 24.8768 23.333 24.9571 23.2162 24.9892C22.9739 25.0563 22.6645 25.0403 22.3712 24.9469C21.7582 24.7528 21.4269 24.3149 21.513 24.042ZM17.9066 27.0237C17.8205 27.2952 17.2965 27.4645 16.6835 27.2704C16.0706 27.0763 15.7393 26.637 15.8253 26.364C15.8866 26.1728 16.161 26.0342 16.5317 26.0342C16.6894 26.0342 16.8645 26.059 17.0484 26.1174C17.5972 26.2911 17.9197 26.6618 17.9197 26.9332C17.9197 26.9639 17.9153 26.9945 17.9066 27.0237ZM19.5266 26.2648C19.2318 26.1714 18.9705 26.0065 18.8115 25.8124C18.7341 25.7189 18.613 25.535 18.6684 25.3584C18.7254 25.1818 18.9297 25.1016 19.045 25.0695C19.1457 25.0417 19.2567 25.0286 19.3734 25.0286C19.5397 25.0286 19.7178 25.0563 19.8915 25.1118C20.4403 25.2855 20.7628 25.6547 20.7628 25.9262C20.7628 25.9583 20.7584 25.9875 20.7496 26.0167C20.6942 26.1933 20.4899 26.2735 20.3732 26.3057C20.1309 26.3728 19.8214 26.3582 19.5266 26.2648Z" fill="#677EF5"/>
<path d="M24.1194 10L14.0153 12.2681L11 22.1809L21.1713 19.9392L24.1194 10ZM14.4649 19.1321C13.9526 19.6954 13.3834 19.8341 13.217 19.6823C13.0506 19.532 13.1367 18.9511 13.649 18.3892C14.0358 17.9645 14.4532 17.7806 14.7072 17.7806C14.7903 17.7806 14.856 17.801 14.8969 17.8375C14.9465 17.8827 14.9743 17.9674 14.9743 18.0768C14.9743 18.3352 14.8254 18.738 14.4649 19.1321ZM16.387 13.7757C16.3214 14.0472 16.1447 14.3551 15.9039 14.6193C15.6631 14.8835 15.3741 15.0878 15.11 15.1783C14.9071 15.2469 14.7378 15.244 14.6561 15.1695C14.5743 15.0951 14.5554 14.9258 14.605 14.7185C14.6707 14.4471 14.8473 14.1391 15.0881 13.875C15.3289 13.6108 15.6194 13.4065 15.8835 13.316C15.9798 13.2839 16.0703 13.2663 16.1462 13.2663C16.228 13.2663 16.2937 13.2853 16.336 13.3247C16.4177 13.3992 16.4366 13.5685 16.387 13.7757ZM19.9905 17.1574C19.9249 17.4288 19.7497 17.7368 19.5089 18.0009C19.2681 18.2651 18.9776 18.4694 18.7134 18.5599C18.5106 18.63 18.3428 18.6271 18.2596 18.5512C18.1778 18.4767 18.1589 18.3089 18.21 18.1017C18.2756 17.8302 18.4508 17.5222 18.6916 17.2581C18.9339 16.9924 19.2228 16.7896 19.487 16.6991C19.5848 16.6655 19.6738 16.6495 19.7497 16.6495C19.8314 16.6495 19.8986 16.6684 19.9409 16.7064C20.0226 16.7823 20.0416 16.9501 19.9905 17.1574ZM19.6986 14.0384C19.6169 13.964 19.5979 13.7961 19.649 13.5874C19.7147 13.316 19.8898 13.0095 20.1321 12.7439C20.3729 12.4797 20.6619 12.2768 20.9261 12.1849C21.0238 12.1528 21.1128 12.1352 21.1888 12.1352C21.2705 12.1352 21.3376 12.1557 21.3799 12.1936C21.4617 12.2681 21.4807 12.4374 21.4296 12.6446C21.3639 12.9161 21.1888 13.224 20.9479 13.4882C20.4342 14.0516 19.8664 14.1902 19.6986 14.0384Z" fill="#677EF5"/>
<path d="M25.1385 23.8143L26.8505 21.6513C26.9147 21.5696 27.0168 21.5287 27.119 21.5433L30.381 21.9885L31.5953 17.6757L24.6685 10.1826L21.7203 20.1101L25.1385 23.8143ZM26.3893 16.7664C26.4433 16.7533 26.4988 16.746 26.5557 16.746C26.7994 16.746 27.0592 16.8671 27.3044 17.0992C27.4737 17.2568 27.6226 17.4553 27.7481 17.683C27.8722 17.9092 27.9699 18.1646 28.0385 18.4361C28.1728 18.9805 28.1641 19.5234 28.0137 19.9612C27.878 20.3553 27.6459 20.6122 27.3584 20.6822C26.7264 20.8398 25.9719 20.0751 25.7091 19.0126C25.4465 17.9515 25.7573 16.9226 26.3893 16.7664Z" fill="#677EF5"/>
</svg>
