<svg width="55" height="55" viewBox="0 0 55 55" fill="none" xmlns="http://www.w3.org/2000/svg">
<rect width="55" height="55" rx="10" fill="#0228EE"/>
<path opacity="0.4" d="M35.6822 10H19.3334C13.3756 10 10 13.3756 10 19.3333V35.6666C10 41.6244 13.3756 45 19.3334 45H35.6822C41.64 45 45 41.6244 45 35.6666V19.3333C45 13.3756 41.64 10 35.6822 10Z" fill="white"/>
<path d="M19.3954 22.8958C18.6021 22.8958 17.9487 23.549 17.9487 24.3579V36.3824C17.9487 37.1758 18.6021 37.829 19.3954 37.829C20.2042 37.829 20.8576 37.1758 20.8576 36.3824V24.3579C20.8576 23.549 20.2042 22.8958 19.3954 22.8958Z" fill="white"/>
<path d="M27.5619 17.1555C26.7685 17.1555 26.1152 17.8089 26.1152 18.6178V36.3821C26.1152 37.1755 26.7685 37.8289 27.5619 37.8289C28.3708 37.8289 29.0241 37.1755 29.0241 36.3821V18.6178C29.0241 17.8089 28.3708 17.1555 27.5619 17.1555Z" fill="white"/>
<path d="M35.6217 29.2423C34.8128 29.2423 34.1594 29.8957 34.1594 30.7046V36.3823C34.1594 37.1757 34.8128 37.829 35.6061 37.829C36.415 37.829 37.0683 37.1757 37.0683 36.3823V30.7046C37.0683 29.8957 36.415 29.2423 35.6217 29.2423Z" fill="white"/>
</svg>
