<svg width="55" height="55" viewBox="0 0 55 55" fill="none" xmlns="http://www.w3.org/2000/svg">
<rect width="55" height="55" rx="10" fill="#0228EE"/>
<path fill-rule="evenodd" clip-rule="evenodd" d="M20.9617 18C20.898 18 20.8379 18.0138 20.779 18.0383C20.7201 18.0629 20.6642 18.1002 20.6191 18.1456C20.574 18.1909 20.5369 18.2472 20.5125 18.3065C20.4881 18.3657 20.4745 18.4261 20.4744 18.4903V20.5665C20.4744 20.6307 20.4881 20.6988 20.5125 20.7581C20.5369 20.8174 20.574 20.8736 20.6191 20.919C20.6642 20.9643 20.7201 21.0016 20.779 21.0262C20.8379 21.0508 20.898 21.0568 20.9617 21.0569H25.6748V24.6117H18.8526H15.67C13.655 24.6117 12 26.2765 12 28.3044V36.5097C12 36.5739 12.0137 36.6342 12.0381 36.6935C12.0625 36.7528 12.0996 36.8091 12.1447 36.8544C12.1898 36.8998 12.2456 36.9371 12.3046 36.9617C12.3635 36.9863 12.4235 37 12.4873 37H18.8526C18.9164 37 18.9765 36.9863 19.0354 36.9617C19.0943 36.9371 19.1502 36.8998 19.1953 36.8544C19.2404 36.8091 19.2775 36.7528 19.3019 36.6935C19.3263 36.6342 19.3399 36.5739 19.3399 36.5097V31.9972H42.5127C42.5765 31.9972 42.6441 31.9834 42.7031 31.9589C42.762 31.9343 42.8102 31.897 42.8553 31.8516C42.9004 31.8062 42.9375 31.75 42.9619 31.6907C42.9863 31.6314 43 31.571 43 31.5068V25.102C43 25.0378 42.9863 24.9774 42.9619 24.9181C42.9375 24.8589 42.9004 24.8026 42.8553 24.7573C42.8102 24.7119 42.762 24.6746 42.7031 24.65C42.6441 24.6254 42.5765 24.6117 42.5127 24.6117H28.2408V21.0569H32.9539C33.0177 21.0569 33.0853 21.0508 33.1442 21.0262C33.2032 21.0016 33.2514 20.9643 33.2965 20.919C33.3416 20.8736 33.3787 20.8174 33.4031 20.7581C33.4275 20.6988 33.4412 20.6307 33.4412 20.5665V18.4903C33.4412 18.4261 33.4275 18.3657 33.4031 18.3065C33.3787 18.2472 33.3416 18.1909 33.2965 18.1456C33.2514 18.1002 33.2032 18.0629 33.1442 18.0383C33.0853 18.0137 33.0177 18 32.9539 18H20.9617Z" fill="white"/>
<path fill-rule="evenodd" clip-rule="evenodd" d="M20.9618 18C20.898 18 20.838 18.0138 20.779 18.0383C20.7201 18.0629 20.6643 18.1002 20.6192 18.1456C20.574 18.1909 20.537 18.2472 20.5126 18.3065C20.4881 18.3657 20.4745 18.4261 20.4745 18.4903V20.5665C20.4745 20.6307 20.4881 20.6988 20.5126 20.7581C20.537 20.8174 20.574 20.8736 20.6192 20.919C20.6643 20.9643 20.7201 21.0016 20.779 21.0262C20.838 21.0508 20.898 21.0568 20.9618 21.0569H25.6749V24.6117C2.13793 24.6117 71.6806 24.6117 28.2408 24.6117V21.0569H32.9539C33.0177 21.0569 33.0853 21.0508 33.1443 21.0262C33.2032 21.0016 33.2515 20.9643 33.2966 20.919C33.3417 20.8736 33.3787 20.8174 33.4032 20.7581C33.4276 20.6988 33.4412 20.6307 33.4412 20.5665V18.4903C33.4412 18.4261 33.4276 18.3657 33.4032 18.3065C33.3787 18.2472 33.3417 18.1909 33.2966 18.1456C33.2515 18.1002 33.2032 18.0629 33.1443 18.0383C33.0853 18.0137 33.0177 18 32.9539 18H20.9618Z" fill="#5871F4"/>
</svg>
