<svg width="75" height="75" viewBox="0 0 75 75" fill="none" xmlns="http://www.w3.org/2000/svg">
<path d="M37.3128 74.3719C57.85 74.3719 74.4987 57.7232 74.4987 37.1859C74.4987 16.6487 57.85 0 37.3128 0C16.7755 0 0.126831 16.6487 0.126831 37.1859C0.126831 57.7232 16.7755 74.3719 37.3128 74.3719Z" fill="white"/>
<path fill-rule="evenodd" clip-rule="evenodd" d="M25.0224 22.0621C25.2662 21.8281 25.588 21.6915 25.9196 21.6915H56.8755C57.4412 21.6915 57.724 22.3742 57.3241 22.7741L51.209 28.8892C50.975 29.1233 50.6531 29.2598 50.3118 29.2598H19.3559C18.7902 29.2598 18.5074 28.5771 18.9073 28.1772L25.0224 22.0621ZM25.0222 44.8939C25.2563 44.6598 25.5781 44.5233 25.9195 44.5233H56.8753C57.441 44.5233 57.7239 45.206 57.324 45.6059L51.2089 51.7209C50.9748 51.955 50.653 52.0916 50.3116 52.0916H19.3558C18.7901 52.0916 18.5072 51.4089 18.9071 51.009L25.0222 44.8939ZM50.3116 33.0343C50.653 33.0343 50.9748 33.1709 51.2089 33.4049L57.324 39.52C57.7239 39.9199 57.441 40.6026 56.8753 40.6026H25.9195C25.5781 40.6026 25.2563 40.4661 25.0222 40.232L18.9071 34.1169C18.5072 33.717 18.7901 33.0343 19.3558 33.0343H50.3116Z" fill="url(#paint0_linear_113_261)"/>
<defs>
<linearGradient id="paint0_linear_113_261" x1="49.205" y1="15.5776" x2="27.7814" y2="56.6132" gradientUnits="userSpaceOnUse">
<stop stop-color="#00FFA3"/>
<stop offset="1" stop-color="#DC1FFF"/>
</linearGradient>
</defs>
</svg>
