<svg width="55" height="55" viewBox="0 0 55 55" fill="none" xmlns="http://www.w3.org/2000/svg">
<rect width="55" height="55" rx="10" fill="#0228EE"/>
<path d="M38.3396 17.2994L17.631 17.4862C17.0155 17.4918 16.5144 17.997 16.5144 18.6125V26.0083C16.5144 26.6296 17.0195 27.1347 17.6408 27.1347H38.3493C38.9714 27.1347 39.4765 26.6296 39.4765 26.0083C39.4765 26.0083 39.4765 18.429 39.4765 18.4258C39.4765 17.8118 38.9641 17.2994 38.3396 17.2994Z" fill="white"/>
<path d="M41.0509 8H14.9483C11.1168 8 8 11.1168 8 14.9483V41.0517C8 44.8832 11.1168 48 14.9483 48H41.0517C44.8832 48 48 44.8832 48 41.0517V14.9483C47.9992 11.1168 44.8823 8 41.0509 8ZM22.6543 35.6244C23.5647 35.6244 24.2388 36.3683 24.2785 37.2486C24.3175 38.1257 23.5038 38.8728 22.6543 38.8728C22.3994 38.8728 22.1444 38.8728 21.8894 38.8728C21.6352 38.8728 21.3802 38.8728 21.126 38.8728C21.1195 39.3601 21.113 39.8465 21.1065 40.3338C21.0943 41.2441 20.3723 41.9182 19.4823 41.958C18.6133 41.997 17.8467 41.184 17.8581 40.3338C17.8613 40.0707 17.8654 39.8067 17.8686 39.5428C17.8719 39.3195 17.8743 39.0961 17.8776 38.8728C17.4114 38.8728 16.9453 38.8728 16.48 38.8728C15.5696 38.8728 14.8955 38.1289 14.8558 37.2486C14.8168 36.3715 15.6305 35.6244 16.48 35.6244C16.735 35.6244 16.99 35.6244 17.245 35.6244C17.4707 35.6244 17.6965 35.6244 17.9214 35.6244C17.9287 35.0998 17.9352 34.5752 17.9425 34.0506C17.9547 33.1402 18.6767 32.4661 19.5667 32.4264C20.4357 32.3874 21.2023 33.2003 21.1909 34.0506C21.1877 34.3137 21.1836 34.5776 21.1804 34.8415C21.1771 35.1022 21.1731 35.3637 21.1698 35.6244C21.6644 35.6244 22.159 35.6244 22.6543 35.6244ZM31.654 37.2494C31.654 36.1856 32.5189 35.3207 33.5828 35.3207C34.6466 35.3207 35.5115 36.1856 35.5115 37.2494C35.5115 38.3133 34.6466 39.1782 33.5828 39.1782C32.5189 39.1782 31.654 38.3125 31.654 37.2494ZM39.369 39.1205C38.3051 39.1205 37.4403 38.2556 37.4403 37.1918C37.4403 36.1279 38.3051 35.263 39.369 35.263C40.4328 35.263 41.2977 36.1279 41.2977 37.1918C41.2977 38.2556 40.4328 39.1205 39.369 39.1205ZM42.7246 26.0083C42.7246 28.4211 40.7617 30.3831 38.349 30.3831H17.6404C15.2277 30.3831 13.2657 28.4203 13.2657 26.0083V18.6125C13.2657 16.2217 15.2106 14.2597 17.6015 14.2377L38.31 14.051C38.3246 14.051 38.3376 14.051 38.3514 14.051C39.5119 14.051 40.6034 14.5001 41.4293 15.3186C42.2649 16.147 42.7254 17.2498 42.7254 18.4266L42.7246 26.0083Z" fill="#677EF5"/>
</svg>
