<svg width="55" height="55" viewBox="0 0 55 55" fill="none" xmlns="http://www.w3.org/2000/svg">
<rect width="55" height="55" rx="10" fill="#0228EE"/>
<path d="M25.5 48C27.433 48 29 46.433 29 44.5C29 42.567 27.433 41 25.5 41C23.567 41 22 42.567 22 44.5C22 46.433 23.567 48 25.5 48Z" fill="white"/>
<path d="M25.6094 41.875V43.8153L27.2493 44.5481L25.6094 41.875Z" fill="#0228EE"/>
<path d="M25.6089 41.875L23.9688 44.5481L25.6089 43.8153V41.875Z" fill="#0228EE"/>
<path d="M25.6094 45.8055V47.1239L27.2504 44.8535L25.6094 45.8055Z" fill="#0228EE"/>
<path d="M25.6089 47.1239V45.8053L23.9688 44.8535L25.6089 47.1239Z" fill="#0228EE"/>
<path d="M25.6094 45.5004L27.2493 44.5482L25.6094 43.8158V45.5004Z" fill="#0228EE"/>
<path d="M23.9688 44.5482L25.6089 45.5004V43.8158L23.9688 44.5482Z" fill="#0228EE"/>
<path d="M22 38C24.2091 38 26 36.2091 26 34C26 31.7909 24.2091 30 22 30C19.7909 30 18 31.7909 18 34C18 36.2091 19.7909 38 22 38Z" fill="white"/>
<path d="M23.7965 33.505C23.875 32.981 23.4757 32.6993 22.9302 32.5113L23.1072 31.8013L22.6752 31.6938L22.5027 32.385C22.3892 32.3565 22.2727 32.33 22.1565 32.3035L22.3302 31.6078L21.8982 31.5L21.7212 32.2097C21.6272 32.1883 21.5347 32.1673 21.4452 32.1448L21.4457 32.1425L20.8497 31.9938L20.7347 32.4553C20.7347 32.4553 21.0555 32.5288 21.0487 32.5333C21.2237 32.577 21.2552 32.6928 21.25 32.7848L21.0485 33.5935C21.0605 33.5965 21.076 33.601 21.0935 33.6078L21.0477 33.5965L20.7652 34.7295C20.7437 34.7825 20.6895 34.8623 20.567 34.832C20.5715 34.8383 20.253 34.7538 20.253 34.7538L20.0385 35.2483L20.601 35.3885C20.7055 35.4148 20.808 35.4423 20.9087 35.468L20.73 36.186L21.1617 36.2935L21.3387 35.5835C21.4567 35.6153 21.5712 35.6448 21.6832 35.6728L21.5067 36.3798L21.9387 36.4873L22.1175 35.7708C22.8545 35.9103 23.4085 35.854 23.6417 35.1875C23.8297 34.651 23.6325 34.3413 23.2447 34.1395C23.5272 34.0745 23.7397 33.8888 23.7965 33.505ZM22.809 34.8895C22.6757 35.4263 21.772 35.136 21.479 35.0633L21.7165 34.112C22.0095 34.1853 22.9487 34.33 22.809 34.8895ZM22.9427 33.4973C22.821 33.9855 22.069 33.7373 21.8252 33.6765L22.0402 32.814C22.284 32.8748 23.0697 32.988 22.9427 33.4973Z" fill="#0228EE"/>
<path fill-rule="evenodd" clip-rule="evenodd" d="M26.9617 7C26.898 7 26.8379 7.01375 26.779 7.03831C26.7201 7.06287 26.6642 7.10018 26.6191 7.14556C26.574 7.19095 26.5369 7.24716 26.5125 7.30645C26.4881 7.36575 26.4745 7.42614 26.4744 7.49032V9.56653C26.4744 9.63071 26.4881 9.69877 26.5125 9.75806C26.5369 9.81736 26.574 9.87357 26.6191 9.91895C26.6642 9.96434 26.7201 10.0016 26.779 10.0262C26.8379 10.0508 26.898 10.0568 26.9617 10.0569H31.6748V13.6117H24.8526H21.67C19.655 13.6117 18 15.2765 18 17.3044V25.5097C18 25.5739 18.0137 25.6342 18.0381 25.6935C18.0625 25.7528 18.0996 25.8091 18.1447 25.8544C18.1898 25.8998 18.2456 25.9371 18.3046 25.9617C18.3635 25.9863 18.4235 26 18.4873 26H24.8526C24.9164 26 24.9765 25.9863 25.0354 25.9617C25.0943 25.9371 25.1502 25.8998 25.1953 25.8544C25.2404 25.8091 25.2775 25.7528 25.3019 25.6935C25.3263 25.6342 25.3399 25.5739 25.3399 25.5097V20.9972H48.5127C48.5765 20.9972 48.6441 20.9834 48.7031 20.9589C48.762 20.9343 48.8102 20.897 48.8553 20.8516C48.9004 20.8062 48.9375 20.75 48.9619 20.6907C48.9863 20.6314 49 20.571 49 20.5068V14.102C49 14.0378 48.9863 13.9774 48.9619 13.9181C48.9375 13.8589 48.9004 13.8026 48.8553 13.7573C48.8102 13.7119 48.762 13.6746 48.7031 13.65C48.6441 13.6254 48.5765 13.6117 48.5127 13.6117H34.2408V10.0569H38.9539C39.0177 10.0569 39.0853 10.0508 39.1442 10.0262C39.2032 10.0016 39.2514 9.96434 39.2965 9.91895C39.3416 9.87357 39.3787 9.81736 39.4031 9.75806C39.4275 9.69877 39.4412 9.63071 39.4412 9.56653V7.49032C39.4412 7.42614 39.4275 7.36575 39.4031 7.30645C39.3787 7.24716 39.3416 7.19095 39.2965 7.14556C39.2514 7.10018 39.2032 7.06287 39.1442 7.03831C39.0853 7.01374 39.0177 7.00001 38.9539 7H26.9617Z" fill="#5871F4"/>
<path d="M17.5 44C18.8807 44 20 42.8807 20 41.5C20 40.1193 18.8807 39 17.5 39C16.1193 39 15 40.1193 15 41.5C15 42.8807 16.1193 44 17.5 44Z" fill="white"/>
<path fill-rule="evenodd" clip-rule="evenodd" d="M17.07 41.2828H17.7441V41.64H17.07V42.3928H17.4952C17.6634 42.3928 17.8011 42.3702 17.9083 42.3245C18.0155 42.2791 18.0995 42.2161 18.1606 42.1355C18.2231 42.0516 18.2656 41.9546 18.285 41.8519C18.3076 41.736 18.3186 41.6181 18.3178 41.5C18.3186 41.3819 18.3076 41.264 18.285 41.1481C18.2657 41.0454 18.2231 40.9484 18.1606 40.8645C18.0995 40.7839 18.0153 40.7209 17.9083 40.6755C17.8011 40.6298 17.6634 40.6072 17.4952 40.6072H17.07V41.283V41.2828ZM16.6378 41.64H16.4062V41.283H16.6378V40.25H17.6611C17.8502 40.25 18.0138 40.2828 18.152 40.348C18.2903 40.4134 18.4031 40.5027 18.4908 40.6159C18.5783 40.7291 18.6434 40.8616 18.6861 41.0133C18.7287 41.165 18.75 41.3273 18.75 41.5C18.7511 41.6644 18.7295 41.8282 18.6859 41.9867C18.6434 42.1383 18.5783 42.2709 18.4906 42.3841C18.4031 42.4973 18.2903 42.5866 18.152 42.652C18.0138 42.7173 17.85 42.75 17.6611 42.75H16.6378V41.64Z" fill="#0228EE"/>
</svg>
