<svg width="55" height="55" viewBox="0 0 55 55" fill="none" xmlns="http://www.w3.org/2000/svg">
<rect width="55" height="55" rx="10" fill="#0228EE"/>
<circle cx="27.5" cy="27.5" r="14.5" fill="white"/>
<path d="M30 23.5593L28.3722 23.3527C28.3425 23.3502 28.3147 23.3397 28.2929 23.3228C28.2712 23.3059 28.2567 23.2835 28.2517 23.2591L27.5175 22L26.7405 23.2914C26.7405 23.3269 26.7133 23.3656 26.6162 23.3688L25 23.5722L26.1655 24.5117C26.216 24.5569 26.2315 24.573 26.2315 24.6279L25.9441 26L27.432 25.3349H27.5524L29.0404 26L28.7529 24.6408V24.6215C28.7555 24.5786 28.7777 24.5381 28.8151 24.5085L30 23.5593Z" fill="#677EF5"/>
<path d="M20.903 25.8528V21H19.0326V21.1122C18.9356 22.3028 18.9356 25.2413 20.8199 26.848L21 27L20.9612 26.725C20.9217 26.4372 20.9022 26.1452 20.903 25.8528Z" fill="#677EF5"/>
<path d="M35.9673 21H34.097V25.8587C34.0975 26.149 34.078 26.4389 34.0388 26.7246L34 27L34.1801 26.8551C36.0532 25.2536 36.0587 22.3116 35.9728 21.1196L35.9673 21Z" fill="#677EF5"/>
<path d="M27.5 11C24.2366 11 21.0465 11.9677 18.3331 13.7808C15.6197 15.5938 13.5048 18.1707 12.256 21.1857C11.0071 24.2007 10.6804 27.5183 11.3171 30.719C11.9537 33.9197 13.5252 36.8597 15.8327 39.1673C18.1403 41.4748 21.0803 43.0463 24.281 43.6829C27.4817 44.3196 30.7993 43.9929 33.8143 42.744C36.8293 41.4952 39.4062 39.3803 41.2192 36.6669C43.0323 33.9535 44 30.7634 44 27.5C44 23.1239 42.2616 18.9271 39.1673 15.8327C36.0729 12.7384 31.8761 11 27.5 11ZM33.365 28.4675L33.3125 28.49L33.29 28.5425C32.8731 29.6116 32.1735 30.5472 31.2659 31.2493C30.3583 31.9515 29.277 32.3937 28.1375 32.5287H28.0138V36.5H31.505C31.5935 36.5001 31.681 36.5189 31.7618 36.5551C31.8425 36.5912 31.9148 36.644 31.9738 36.71C32.0307 36.775 32.0729 36.8516 32.0975 36.9344C32.1221 37.0173 32.1285 37.1044 32.1163 37.19C32.0941 37.342 32.0161 37.4803 31.8976 37.5781C31.7791 37.6758 31.6285 37.7259 31.475 37.7187H23.3338C23.2449 37.7186 23.1571 37.6995 23.0762 37.6626C22.9954 37.6258 22.9234 37.572 22.865 37.505C22.808 37.4408 22.7656 37.3649 22.741 37.2826C22.7164 37.2004 22.7101 37.1137 22.7225 37.0287C22.7448 36.8747 22.8244 36.7347 22.9453 36.6367C23.0662 36.5387 23.2197 36.4899 23.375 36.5H26.8063V32.5437H26.6825C25.5271 32.4026 24.4327 31.9468 23.5187 31.2259C22.6048 30.5051 21.9064 29.547 21.5 28.4562L21.4775 28.4037L21.4288 28.3775C17.1913 26.3337 17.5588 21.5787 17.6788 20.6487V20.63C17.6845 20.4879 17.745 20.3536 17.8475 20.255C17.901 20.2011 17.9647 20.1583 18.0348 20.1294C18.105 20.1004 18.1803 20.0857 18.2563 20.0862H21.0913V18.6125H33.7025V20.0825H36.7438C36.8204 20.081 36.8965 20.0953 36.9674 20.1243C37.0384 20.1533 37.1026 20.1965 37.1563 20.2512C37.2588 20.3498 37.3192 20.4842 37.325 20.6262V20.645C37.4113 21.2337 38.03 26.4087 33.365 28.4675Z" fill="#677EF5"/>
</svg>
