<svg width="75" height="75" viewBox="0 0 75 75" fill="none" xmlns="http://www.w3.org/2000/svg">
<path d="M37.1859 74.3719C57.7232 74.3719 74.3719 57.7232 74.3719 37.1859C74.3719 16.6487 57.7232 0 37.1859 0C16.6487 0 0 16.6487 0 37.1859C0 57.7232 16.6487 74.3719 37.1859 74.3719Z" fill="#F7931A"/>
<path d="M53.8825 32.5842C54.6122 27.7128 50.9006 25.0935 45.8294 23.3458L47.4749 16.7453L43.4588 15.7459L41.8551 22.1721C40.8 21.9071 39.717 21.6608 38.6362 21.4144L40.2515 14.9464L36.2354 13.9447L34.5899 20.5429C33.7161 20.343 32.8562 20.1478 32.0241 19.9386L32.0288 19.9177L26.4881 18.5348L25.419 22.8252C25.419 22.8252 28.4008 23.5085 28.3381 23.5503C29.9649 23.957 30.2578 25.0331 30.209 25.8884L28.3357 33.4069C28.4473 33.4348 28.5914 33.4766 28.7541 33.5394L28.3288 33.4348L25.7025 43.9677C25.5026 44.4604 24.9983 45.2018 23.8595 44.9206C23.9013 44.9787 20.9404 44.1931 20.9404 44.1931L18.9463 48.7902L24.1756 50.0941C25.147 50.3381 26.0999 50.5938 27.0366 50.8331L25.3748 57.508L29.3886 58.5074L31.034 51.9069C32.131 52.202 33.1955 52.4763 34.2367 52.7366L32.5959 59.3092L36.6119 60.3086L38.2737 53.6477C45.1252 54.9445 50.2754 54.4216 52.4438 48.2255C54.1916 43.2379 52.3578 40.3583 48.7531 38.4828C51.3794 37.8785 53.3549 36.1517 53.8825 32.5842ZM44.7022 45.4551C43.4634 50.445 35.0617 47.7467 32.3379 47.0704L34.5458 38.2271C37.2697 38.9081 46.0014 40.2537 44.7022 45.4551ZM45.9456 32.5121C44.8138 37.0511 37.8228 34.7433 35.5568 34.1785L37.5555 26.1603C39.8215 26.725 47.1263 27.7779 45.9456 32.5121Z" fill="white"/>
</svg>
