<svg width="55" height="55" viewBox="0 0 55 55" fill="none" xmlns="http://www.w3.org/2000/svg">
<rect width="55" height="55" rx="10" fill="#0228EE"/>
<path d="M27.9973 8C39.0474 8 47.9946 16.9472 47.9946 27.9973C47.9946 31.6951 47.135 34.8144 45.8321 37.404C45.6591 34.8739 43.5508 32.8628 40.9882 32.8628C39.4583 32.8628 38.096 33.571 37.1931 34.6847C37.2148 31.6032 34.782 29.6462 32.3276 29.6083C30.6787 29.6083 29.2029 30.4517 28.3217 31.7167C27.4405 30.7598 26.1592 30.1652 24.759 30.1652C22.8615 30.1652 21.2126 31.2356 20.4125 32.8304C19.7638 32.506 19.0339 32.333 18.2663 32.333C15.5848 32.333 13.4007 34.5171 13.4007 37.1985C13.4007 37.8689 13.5521 38.5014 13.8008 39.0745C13.5521 39.6691 13.4007 40.3017 13.4007 40.972C13.4007 41.2964 13.4386 41.6208 13.5143 41.9289C10.4706 38.6474 8 34.0684 8 27.9973C8 16.9472 16.9472 8 27.9973 8ZM27.9973 10.3192C22.1911 10.3192 17.4607 12.4438 17.4607 15.0118C17.4607 17.5797 22.1911 19.7043 27.9973 19.7043C33.8035 19.7043 38.5501 17.5959 38.5501 15.0118C38.5501 12.4276 33.8197 10.3192 27.9973 10.3192ZM28.765 37.7716C29.6462 38.7501 30.9112 39.3448 32.3276 39.3448C32.825 39.3448 33.3223 39.2691 33.7819 39.1123C33.6683 39.3826 33.5926 39.6475 33.5332 39.9178C32.8412 39.5556 32.0789 39.3448 31.2518 39.3448C29.7219 39.3448 28.3595 40.0746 27.4567 41.1829C26.9755 40.5882 26.3863 40.1124 25.6943 39.7827C26.9593 39.534 28.0514 38.8042 28.7596 37.7716H28.765ZM35.9876 45.2591C36.5985 45.5835 37.2688 45.7781 37.9824 45.8159C37.2904 46.2376 36.6201 46.5836 35.9876 46.8863C35.6254 47.0593 35.2794 47.1945 34.955 47.3242C35.4524 46.7512 35.8146 46.043 35.9876 45.2537V45.2591ZM19.0718 45.7781C19.1691 46.0105 19.3042 46.2971 19.3961 46.5079C19.0339 46.2971 18.6663 46.0862 18.2663 45.8375C18.5528 45.8375 18.8231 45.7997 19.0718 45.7781ZM27.4621 47.254C27.6946 47.5405 27.9432 47.7892 28.2298 48H26.716C27.0026 47.7892 27.235 47.5405 27.4621 47.254Z" fill="#677EF5"/>
<path d="M32.3302 30.7004C34.417 30.7004 36.1253 32.3871 36.1253 34.4739C36.1253 36.5606 34.4224 38.269 32.3302 38.269C31.0868 38.269 29.9948 37.6743 29.3028 36.7552C29.5136 36.22 29.6271 35.6254 29.6271 35.0307C29.6271 34.1711 29.3947 33.3656 28.9946 32.6574C29.6434 31.4897 30.8922 30.7058 32.3302 30.7058V30.7004Z" fill="white"/>
<path d="M24.7607 31.2356C26.8475 31.2356 28.5342 32.9223 28.5342 35.0307C28.5342 37.1391 26.8475 38.8042 24.7607 38.8042C22.6739 38.8042 20.9656 37.1175 20.9656 35.0307C20.9656 32.9439 22.6523 31.2356 24.7607 31.2356Z" fill="white"/>
<path d="M18.2695 33.398C18.9183 33.398 19.513 33.5494 20.0536 33.8359C19.9563 34.2198 19.9022 34.6036 19.9022 35.0253C19.9022 35.5227 19.9779 36.0038 20.113 36.4795C19.5562 36.2309 18.9237 36.0957 18.2749 36.0957C16.7829 36.0957 15.4584 36.7877 14.5609 37.8365C14.5231 37.6256 14.5015 37.3986 14.5015 37.1877C14.5015 35.0794 16.1882 33.3926 18.2749 33.3926L18.2695 33.398Z" fill="white"/>
<path d="M40.9917 33.9387C43.0785 33.9387 44.7652 35.6254 44.7652 37.7338C44.7652 39.015 44.1327 40.1449 43.1379 40.8369C43.0785 38.2149 40.916 36.1065 38.2724 36.1065C38.0237 36.1065 37.7913 36.1281 37.5642 36.166C38.1589 34.8631 39.4618 33.9441 40.9917 33.9441V33.9387Z" fill="white"/>
<path d="M18.2686 37.1932C19.9175 37.1932 21.3123 38.2257 21.8312 39.7016C20.4527 40.1828 18.8633 42.1128 18.8038 44.2049C18.8038 44.3779 18.8038 44.5509 18.8254 44.7023C18.6524 44.7239 18.4632 44.7618 18.2686 44.7618C16.1818 44.7618 14.4951 43.0751 14.4951 40.9667C14.4951 38.8583 16.1818 37.1932 18.2686 37.1932Z" fill="white"/>
<path d="M38.2649 37.1932C40.3733 37.1932 42.06 38.8799 42.06 40.9667C42.0222 43.248 40.276 44.7023 38.2649 44.7618C36.1782 44.7618 34.4915 43.0751 34.4915 40.9667C34.4915 38.8583 36.1782 37.1932 38.2649 37.1932Z" fill="white"/>
<path d="M23.6702 40.4314C25.7786 40.4314 27.4654 42.1181 27.4654 44.2049C27.3897 46.389 25.703 47.9027 23.4053 47.9784C21.5673 47.9405 19.8589 46.043 19.9022 44.2049C19.9022 42.1181 21.5889 40.4314 23.6757 40.4314H23.6702Z" fill="white"/>
<path d="M31.2598 40.4314C32.0653 40.4314 32.7898 40.6801 33.4061 41.1018C33.4439 42.4804 34.0548 43.7075 35.0171 44.5671C34.8441 46.5025 33.2331 47.9946 31.2652 47.9946C29.9245 47.9946 28.7568 47.3026 28.0864 46.2701C28.373 45.6375 28.5459 44.951 28.5459 44.1995C28.5459 43.4481 28.373 42.7831 28.0864 42.1506C28.7568 41.118 29.9245 40.426 31.2652 40.426L31.2598 40.4314Z" fill="white"/>
</svg>
