<svg width="55" height="55" viewBox="0 0 55 55" fill="none" xmlns="http://www.w3.org/2000/svg">
<rect width="55" height="55" rx="10" fill="#0228EE"/>
<path d="M27.4882 17.4875L31.1177 19.1705L30.6854 14.9036L33.3609 12.2667L29.8287 11.3126L27.4882 8L25.1477 11.3126L21.6155 12.2667L24.2909 14.9036L23.8586 19.1705L27.4882 17.4875Z" fill="white"/>
<path d="M32.6924 26.2114V44.0976H22.2859V26.2114C22.2859 25.496 22.8713 24.9105 23.5867 24.9105H31.3916C32.107 24.9105 32.6924 25.496 32.6924 26.2114Z" fill="white"/>
<path d="M43.096 31.4146V44.0976H34.6406V30.1139H41.7951C42.5105 30.1139 43.096 30.6992 43.096 31.4146Z" fill="#677EF5"/>
<path d="M20.3323 35.3171V44.0976H11.877V36.6179C11.877 35.9025 12.4624 35.317 13.1778 35.317L20.3323 35.3171Z" fill="#677EF5"/>
<path d="M47.0001 48H7.97561C7.43703 48 7 47.563 7 47.0244C7 46.4859 7.43703 46.0488 7.97561 46.0488H47.0001C47.5387 46.0488 47.9757 46.4859 47.9757 47.0244C47.9757 47.563 47.5387 48 47.0001 48Z" fill="#677EF5"/>
</svg>
