<svg width="46" height="46" viewBox="0 0 46 46" fill="none" xmlns="http://www.w3.org/2000/svg">
<rect width="46" height="46" rx="23" fill="white"/>
<g clip-path="url(#clip0_113_88)">
<path d="M34.4971 19.7778C34.9865 16.4379 32.4923 14.6423 29.0816 13.4446L30.1893 8.92055L27.4874 8.23435L26.4083 12.6394C25.6988 12.4592 24.9697 12.2881 24.245 12.1204L25.3281 7.6862L22.6289 7L21.5245 11.5223L16.0764 10.1464L15.3576 13.0882C15.3576 13.0882 17.3619 13.5565 17.3195 13.5857C18.4134 13.8643 18.6118 14.6021 18.5784 15.1875L15.5472 27.5812C15.4132 27.92 15.074 28.428 14.3095 28.2338C14.3365 28.2739 12.3461 27.7318 12.3461 27.7318L11.005 30.8889L16.4452 32.2895L15.3271 36.8662L18.025 37.5524L19.1328 33.0248C19.8712 33.2286 20.5851 33.4169 21.2847 33.5941L20.1814 38.1006L22.8827 38.7868L24.0008 34.2188C28.6072 35.1073 32.0712 34.7489 33.5272 30.5042C34.7019 27.0845 33.4696 25.1117 31.0459 23.8247C32.8109 23.408 34.1401 22.2249 34.4949 19.7795L34.4971 19.7778ZM28.3234 28.6022C27.4864 32.0219 21.8408 30.1739 20.0088 29.7096L21.4922 23.647C23.3231 24.1128 29.1943 25.0355 28.3244 28.6017L28.3234 28.6022ZM29.1613 19.7293C28.3997 22.8416 23.6988 21.2603 22.1731 20.8723L23.5161 15.3722C25.0423 15.7607 29.9534 16.484 29.1593 19.7291" fill="#010725"/>
</g>
<defs>
<clipPath id="clip0_113_88">
<rect width="24" height="32" fill="white" transform="translate(11.005 7)"/>
</clipPath>
</defs>
</svg>
