<svg width="142" height="23" viewBox="0 0 142 23" fill="none" xmlns="http://www.w3.org/2000/svg">
<g clip-path="url(#clip0_118_229)">
<path d="M13.1058 0.933246L12.4891 0H7.46265L10.608 4.66623L13.1058 0.933246Z" fill="#787878"/>
<path d="M17.4846 7.40576L14.9868 11.1387L22.9736 23H28L17.4846 7.40576Z" fill="#787878"/>
<path d="M5.02643 0L20.5374 23H15.511L0 0H5.02643Z" fill="white"/>
<path d="M20.5374 0L5.02643 23H0L15.511 0H20.5374Z" fill="white"/>
</g>
<path fill-rule="evenodd" clip-rule="evenodd" d="M100.915 7.92126H100.913C100.815 7.29886 100.627 6.74866 100.349 6.26689C100.07 5.78031 99.7169 5.37005 99.2914 5.03422C98.8659 4.69457 98.385 4.43888 97.8489 4.26523C97.3165 4.08778 96.744 4 96.1296 4C95.1297 4 94.2386 4.23852 93.4544 4.71747C92.6701 5.1926 92.0519 5.87572 91.5996 6.76491C91.1474 7.65221 90.9203 8.71696 90.9203 9.94962C90.9203 11.1823 91.1455 12.2451 91.5939 13.1343C92.0462 14.0235 92.6644 14.7086 93.4487 15.1875C94.2329 15.6626 95.1259 15.8992 96.1296 15.8992C96.7669 15.8992 97.3546 15.8057 97.8946 15.6168C98.4347 15.4279 98.9136 15.1627 99.3315 14.8192C99.7532 14.4719 100.099 14.0617 100.366 13.5866C100.639 13.1076 100.822 12.5829 100.915 12.0142L99.1502 12.0085C99.0777 12.3787 98.9479 12.7069 98.759 12.9931C98.5739 13.2755 98.3469 13.5141 98.0797 13.7106C97.8126 13.9071 97.513 14.056 97.181 14.1571C96.8528 14.2544 96.5074 14.304 96.1411 14.304C95.4808 14.304 94.8874 14.138 94.3588 13.806C93.8303 13.474 93.4143 12.9836 93.109 12.3348C92.8075 11.686 92.6568 10.8827 92.6568 9.94771C92.6568 9.01272 92.8075 8.22084 93.109 7.57206C93.4143 6.92329 93.8284 6.43099 94.3531 6.09515C94.8817 5.75932 95.4789 5.5914 96.1468 5.5914C96.515 5.5914 96.8642 5.64292 97.1924 5.74405C97.5245 5.84518 97.824 5.99593 98.0912 6.19628C98.3602 6.39473 98.5854 6.63898 98.7705 6.9252C98.9556 7.21142 99.0815 7.54344 99.1502 7.92126H100.913L100.913 7.92507L100.915 7.92126ZM131.776 7.05114V8.40784H129.994V13.1878C129.994 13.516 130.044 13.7621 130.141 13.9281C130.238 14.0903 130.366 14.201 130.521 14.2621C130.679 14.3193 130.851 14.346 131.036 14.346C131.172 14.346 131.29 14.3365 131.393 14.3174C131.494 14.2983 131.574 14.283 131.629 14.2716L131.935 15.6684C131.837 15.7065 131.698 15.7447 131.517 15.7809C131.336 15.8229 131.11 15.8458 130.838 15.8496C130.393 15.8573 129.977 15.7771 129.593 15.613C129.208 15.447 128.897 15.1913 128.66 14.844C128.424 14.4968 128.304 14.0617 128.304 13.537V8.40784H127.031V7.05114H128.304V4.96935H129.994V7.05114H131.776ZM137.017 15.9145C136.202 15.9145 135.492 15.7275 134.883 15.3554C134.276 14.9814 133.805 14.4605 133.469 13.7888C133.133 13.1172 132.966 12.3329 132.966 11.4361C132.966 10.5392 133.133 9.74736 133.469 9.07188C133.805 8.39639 134.276 7.87355 134.883 7.49956C135.49 7.12556 136.202 6.94047 137.017 6.94047C137.831 6.94047 138.541 7.12747 139.15 7.49956C139.757 7.87355 140.228 8.39639 140.564 9.07188C140.9 9.74736 141.068 10.5354 141.068 11.4361C141.068 12.3367 140.9 13.1172 140.564 13.7888C140.228 14.4605 139.757 14.9814 139.15 15.3554C138.543 15.7294 137.831 15.9145 137.017 15.9145ZM137.022 14.4948C137.551 14.4948 137.988 14.3556 138.335 14.077C138.682 13.7984 138.938 13.4263 139.104 12.9626C139.274 12.4989 139.358 11.9875 139.358 11.4304C139.358 10.8732 139.274 10.3675 139.104 9.90383C138.938 9.43633 138.682 9.06043 138.335 8.77802C137.988 8.49561 137.551 8.35441 137.022 8.35441C136.494 8.35441 136.049 8.49561 135.698 8.77802C135.351 9.06043 135.093 9.43633 134.923 9.90383C134.757 10.3675 134.675 10.877 134.675 11.4304C134.675 11.9837 134.759 12.4989 134.923 12.9626C135.093 13.4263 135.351 13.7984 135.698 14.077C136.049 14.3556 136.49 14.4948 137.022 14.4948ZM118.079 7.05114V18.9962L118.08 19H119.771V14.3899H119.872C119.973 14.575 120.118 14.7868 120.307 15.0234C120.496 15.26 120.756 15.468 121.088 15.6455C121.424 15.8229 121.855 15.9107 122.383 15.9107C123.084 15.9107 123.708 15.7313 124.255 15.3726C124.803 15.012 125.232 14.4968 125.545 13.8289C125.858 13.1572 126.015 12.352 126.015 11.4132C126.015 10.4744 125.856 9.67104 125.539 9.00318C125.226 8.33724 124.795 7.82585 124.244 7.47094C123.694 7.11602 123.068 6.93856 122.366 6.93856C121.826 6.93856 121.393 7.02824 121.065 7.20952C120.737 7.38698 120.479 7.59497 120.296 7.83158C120.113 8.06819 119.97 8.27808 119.872 8.45936H119.731V7.05114H118.079ZM120.002 13.0008C119.825 12.5414 119.737 12.0058 119.737 11.396C119.737 10.7938 119.823 10.2659 119.996 9.81415C120.17 9.36192 120.424 9.00891 120.76 8.75703C121.099 8.50325 121.494 8.37731 122.004 8.37731C122.513 8.37731 122.937 8.50897 123.276 8.7723C123.62 9.03562 123.876 9.39626 124.045 9.85231C124.219 10.3084 124.305 10.8159 124.305 11.396C124.305 11.9761 124.217 12.4989 124.04 12.9626C123.866 13.4263 123.61 13.7946 123.271 14.0655C122.931 14.3327 122.49 14.4662 122.004 14.4662C121.517 14.4662 121.107 14.3365 120.771 14.0808C120.435 13.8213 120.179 13.4606 120.002 13.0008ZM110.315 18.9962C110.063 18.9962 109.832 18.9752 109.624 18.9332C109.416 18.8951 109.262 18.855 109.16 18.8092L109.567 17.4239C109.876 17.5078 110.151 17.5422 110.393 17.5307C110.635 17.5193 110.847 17.4296 111.032 17.2598C111.221 17.0899 111.387 16.8133 111.53 16.4278L111.74 15.8515L108.561 7.05114H110.372L112.572 13.7926H112.662L114.862 7.05114H116.679L113.099 16.8991C112.933 17.3514 112.721 17.7349 112.465 18.0478C112.21 18.3646 111.904 18.6012 111.549 18.7596C111.195 18.9179 110.784 18.9962 110.317 18.9962H110.315ZM102.871 7.05114V15.739H102.873H104.564V10.4343C104.564 10.0565 104.654 9.72064 104.835 9.42679C105.016 9.12721 105.26 8.89632 105.57 8.73031C105.882 8.56049 106.239 8.47653 106.638 8.47653C106.812 8.47653 106.985 8.48989 107.159 8.5166C107.333 8.5395 107.453 8.56049 107.522 8.57957V6.96145C107.438 6.95001 107.323 6.94046 107.176 6.93283C107.033 6.9252 106.907 6.92138 106.802 6.92138C106.295 6.92138 105.837 7.05686 105.434 7.32782C105.033 7.59496 104.755 7.96323 104.596 8.43073H104.507V7.05114H102.871ZM82.5623 15.3707C83.1119 15.7294 83.7378 15.9088 84.44 15.9088H84.438C84.9666 15.9088 85.3959 15.821 85.728 15.6436C86.06 15.4661 86.3195 15.2581 86.5084 15.0215C86.7011 14.783 86.848 14.5731 86.9492 14.388H87.0904V15.739H88.7428V4.15456H87.0522V8.45745H86.9511C86.8499 8.27617 86.7068 8.06627 86.5217 7.82966C86.3405 7.59305 86.0848 7.38506 85.7528 7.2076C85.4246 7.02633 84.9914 6.93665 84.4514 6.93665C83.7549 6.93665 83.131 7.11411 82.5795 7.46902C82.028 7.82203 81.5949 8.33342 81.2781 9.00127C80.9652 9.66912 80.8087 10.4725 80.8087 11.4113C80.8087 12.3501 80.9633 13.1553 81.2724 13.827C81.5854 14.4948 82.0147 15.0081 82.5623 15.3707ZM86.0466 14.0808C85.7108 14.3384 85.3005 14.4662 84.8139 14.4662V14.4624C84.3121 14.4624 83.8904 14.3288 83.5469 14.0617C83.2073 13.7907 82.9516 13.4225 82.7779 12.9588C82.6043 12.4951 82.5184 11.9646 82.5184 11.3922C82.5184 10.8197 82.6024 10.3045 82.7722 9.84849C82.9459 9.39244 83.2016 9.0318 83.5412 8.76847C83.8809 8.50515 84.3197 8.37349 84.8139 8.37349C85.3082 8.37349 85.7222 8.50133 86.0581 8.75321C86.3939 9.00509 86.6477 9.35809 86.8213 9.81033C86.995 10.2626 87.0808 10.7835 87.0808 11.3941C87.0808 12.0047 86.9931 12.5409 86.8156 13.0008C86.642 13.4606 86.3863 13.8213 86.0466 14.0808ZM75.5875 15.9145C74.7308 15.9145 73.9942 15.7313 73.376 15.365C72.7616 14.9948 72.2864 14.4777 71.9506 13.8098C71.6186 13.1382 71.4526 12.352 71.4526 11.4513C71.4526 10.5507 71.6186 9.77789 71.9506 9.09859C72.2864 8.41929 72.7539 7.89073 73.3531 7.5091C73.9561 7.12747 74.6621 6.93856 75.4692 6.93856C75.9596 6.93856 76.4348 7.02061 76.8946 7.1809C77.3545 7.34309 77.7667 7.59687 78.133 7.94416C78.4994 8.29144 78.7875 8.74177 78.9993 9.29513C79.2111 9.84659 79.3161 10.5144 79.3161 11.3025V11.9017H73.1428C73.1559 12.4301 73.2567 12.8842 73.4466 13.2641C73.6546 13.6705 73.9427 13.9816 74.3129 14.1972C74.6831 14.409 75.1143 14.5139 75.6085 14.5139C75.9291 14.5139 76.221 14.4681 76.4844 14.3785C76.7477 14.285 76.9767 14.1437 77.1694 13.9606C77.3621 13.7755 77.509 13.5484 77.6102 13.2755L79.2111 13.5637C79.0833 14.035 78.8524 14.4471 78.5204 14.8021C78.1922 15.1532 77.78 15.426 77.282 15.6226C76.7878 15.8153 76.2249 15.9107 75.5914 15.9107L75.5875 15.9145ZM77.6598 10.6347H73.1454C73.1654 10.261 73.2577 9.91228 73.4237 9.58708C73.6164 9.21499 73.8874 8.9135 74.2385 8.68261C74.5934 8.44791 75.0075 8.33151 75.4826 8.33151C75.9196 8.33151 76.3012 8.43074 76.6256 8.63109C76.9538 8.83145 77.2076 9.10432 77.3888 9.4516C77.5701 9.79507 77.6598 10.1901 77.6598 10.6347ZM54.0007 15.6245C54.4472 15.8286 54.9434 15.9298 55.4948 15.9298L55.491 15.9317C55.97 15.9317 56.3802 15.8611 56.7237 15.7218C57.0671 15.5825 57.3476 15.4069 57.5671 15.1951C57.7865 14.9833 57.9506 14.7696 58.0594 14.5502H58.1281V15.7371H59.7805V9.96871C59.7805 9.3352 59.6718 8.82 59.4523 8.42501C59.2329 8.02621 58.9524 7.719 58.6089 7.50337C58.2693 7.28966 57.9048 7.14083 57.5117 7.06259C57.1225 6.98054 56.7561 6.93856 56.4088 6.93856C55.886 6.93856 55.3861 7.01489 54.9109 7.16563C54.4358 7.31256 54.016 7.54917 53.6496 7.87737C53.2871 8.20176 53.0123 8.62728 52.8234 9.15584L54.4129 9.51838C54.5369 9.21308 54.7621 8.93449 55.0865 8.68643C55.4128 8.43265 55.886 8.30671 56.4317 8.30671C56.9775 8.30671 57.3896 8.44219 57.6644 8.71314C57.943 8.98601 58.0823 9.36764 58.0823 9.86185V9.90192C58.0823 10.1061 58.0079 10.253 57.8609 10.3427C57.714 10.4343 57.4793 10.4992 57.1549 10.5412C57.0039 10.5589 56.8318 10.5788 56.6383 10.601L56.6383 10.6011C56.4163 10.6266 56.1663 10.6555 55.8879 10.6881C55.4777 10.7377 55.0731 10.8102 54.6781 10.9037C54.2831 10.9972 53.9244 11.1365 53.6038 11.3216C53.2833 11.5067 53.0295 11.7566 52.8406 12.0734C52.6517 12.3902 52.5582 12.7928 52.5582 13.2832C52.5582 13.8537 52.6879 14.3327 52.9436 14.7257C53.2031 15.1169 53.5561 15.4165 54.0007 15.6245ZM57.0614 14.2964C56.7313 14.4815 56.3306 14.5731 55.8631 14.5731C55.3842 14.5731 54.9892 14.4681 54.68 14.2563C54.3709 14.0407 54.2164 13.724 54.2164 13.3061C54.2164 13.0046 54.2946 12.7642 54.453 12.5829C54.6152 12.3978 54.8308 12.2566 55.0979 12.1593C55.3689 12.06 55.6685 11.9914 55.9967 11.9494C56.136 11.9303 56.3096 11.9074 56.5176 11.8807C56.7256 11.8521 56.9374 11.8196 57.1568 11.7853C57.3744 11.7471 57.569 11.7051 57.7388 11.6555C57.9125 11.6021 58.0289 11.5468 58.0899 11.4857V12.6058C58.0899 12.9492 58.0021 13.2717 57.8247 13.5732C57.651 13.8709 57.3973 14.1113 57.0614 14.2964ZM39 4.15456H41.1219L44.8103 13.1591H44.9458L48.6324 4.15456H50.7542V15.739H49.0922V7.35644H48.9854L45.5698 15.7218H44.1902L40.7708 7.35072H40.6639V15.739H39V4.15456ZM68.5728 15.739L65.7105 11.3922L68.5728 7.04542H66.718L64.7832 9.98397L62.8483 7.04542H60.9936L63.8558 11.3922L60.9936 15.739H62.8483L64.7832 12.8004L66.718 15.739H68.5728ZM65.8288 7.39843L65.6018 7.04542H63.747L64.9072 8.80855L65.8288 7.39843ZM67.4451 9.84468L66.5234 11.2548L69.4696 15.7371H71.3243L67.4451 9.84468Z" fill="white"/>
<defs>
<clipPath id="clip0_118_229">
<rect width="28" height="23" fill="white"/>
</clipPath>
</defs>
</svg>
