<svg width="75" height="75" viewBox="0 0 75 75" fill="none" xmlns="http://www.w3.org/2000/svg">
<path d="M37.8134 74.3719C58.4207 74.3719 74.9993 57.7933 74.9993 37.1859C74.9993 16.5786 58.4207 0 37.8134 0C17.206 0 0.627441 16.5786 0.627441 37.1859C0.627441 57.7933 17.206 74.3719 37.8134 74.3719Z" fill="#2775CA"/>
<path d="M48.054 43.0734C48.054 37.6506 44.8002 35.7913 38.2927 35.0167C33.6445 34.3968 32.7148 33.1574 32.7148 30.988C32.7148 28.8186 34.2644 27.4245 37.3631 27.4245C40.152 27.4245 41.7015 28.3541 42.4761 30.6783C42.6312 31.1431 43.096 31.4528 43.5608 31.4528H46.0396C46.6595 31.4528 47.1244 30.988 47.1244 30.3685V30.2134C46.5045 26.8046 43.7155 24.1707 40.152 23.861V20.1424C40.152 19.5225 39.6872 19.0577 38.9126 18.9026H36.5885C35.9686 18.9026 35.5038 19.3674 35.3487 20.1424V23.7059C30.7005 24.3258 27.7568 27.4245 27.7568 31.2981C27.7568 36.4112 30.8555 38.4252 37.3631 39.2002C41.7015 39.9747 43.096 40.9044 43.096 43.3836C43.096 45.8628 40.9266 47.567 37.9829 47.567C33.9542 47.567 32.5598 45.8624 32.0949 43.5383C31.9402 42.9187 31.4754 42.6086 31.0106 42.6086H28.3763C27.7568 42.6086 27.292 43.0734 27.292 43.6933V43.8484C27.9115 47.7217 30.3907 50.5106 35.5038 51.2856V55.0042C35.5038 55.6237 35.9686 56.0885 36.7432 56.2436H39.0673C39.6872 56.2436 40.152 55.7788 40.3071 55.0042V51.2856C44.9553 50.5106 48.054 47.2569 48.054 43.0734Z" fill="white"/>
<path d="M29.9242 59.3425C17.8387 55.0044 11.641 41.5245 16.1345 29.5937C18.4586 23.0862 23.5717 18.1282 29.9242 15.8041C30.5441 15.4943 30.8538 15.0295 30.8538 14.2545V12.0855C30.8538 11.4656 30.5441 11.0008 29.9242 10.8461C29.7691 10.8461 29.4593 10.8461 29.3043 11.0008C14.585 15.649 6.5279 31.2983 11.1761 46.0176C13.9651 54.6942 20.6277 61.3568 29.3043 64.1458C29.9242 64.4555 30.5441 64.1458 30.6988 63.5259C30.8538 63.3712 30.8538 63.2161 30.8538 62.9064V60.7369C30.8538 60.2721 30.389 59.6526 29.9242 59.3425ZM46.3481 11.0008C45.7282 10.691 45.1083 11.0008 44.9536 11.6207C44.7985 11.7757 44.7985 11.9304 44.7985 12.2405V14.4096C44.7985 15.0295 45.2634 15.649 45.7282 15.9591C57.8136 20.2972 64.0114 33.7771 59.5178 45.7079C57.1937 52.2154 52.0807 57.1734 45.7282 59.4975C45.1083 59.8073 44.7985 60.2721 44.7985 61.0471V63.2161C44.7985 63.836 45.1083 64.3008 45.7282 64.4555C45.8833 64.4555 46.193 64.4555 46.3481 64.3008C61.0674 59.6526 69.1245 44.0033 64.4762 29.284C61.6873 20.4523 54.8696 13.7897 46.3481 11.0008Z" fill="white"/>
</svg>
