<svg width="75" height="75" viewBox="0 0 75 75" fill="none" xmlns="http://www.w3.org/2000/svg">
<path d="M37.6869 74.3719C58.2241 74.3719 74.8728 57.7232 74.8728 37.1859C74.8728 16.6487 58.2241 0 37.6869 0C17.1497 0 0.500977 16.6487 0.500977 37.1859C0.500977 57.7232 17.1497 74.3719 37.6869 74.3719Z" fill="#26A17B"/>
<path fill-rule="evenodd" clip-rule="evenodd" d="M42.1555 40.4004V40.3957C41.8998 40.4143 40.582 40.4933 37.642 40.4933C35.2947 40.4933 33.6422 40.4236 33.0612 40.3957V40.4027C24.025 40.0053 17.2804 38.4318 17.2804 36.5493C17.2804 34.6691 24.025 33.0957 33.0612 32.6913V38.8362C33.6515 38.8781 35.3435 38.978 37.6815 38.978C40.4867 38.978 41.8928 38.8618 42.1555 38.8386V32.6959C51.1731 33.098 57.9014 34.6714 57.9014 36.5493C57.9014 38.4318 51.1731 40.0006 42.1555 40.4004ZM42.1555 32.0568V26.5579H54.7383V18.1725H20.4784V26.5579H33.0612V32.0545C22.835 32.5239 15.1445 34.5506 15.1445 36.9769C15.1445 39.4033 22.835 41.4276 33.0612 41.8994V59.5209H42.1555V41.8948C52.3653 41.4253 60.0372 39.401 60.0372 36.9769C60.0372 34.5529 52.3653 32.5286 42.1555 32.0568Z" fill="white"/>
</svg>
