<svg width="39" height="26" viewBox="0 0 39 26" fill="none" xmlns="http://www.w3.org/2000/svg">
<rect width="39" height="26" rx="13" fill="#010D50"/>
<path d="M9.04573 16.5V8.1H10.3177V15.492H14.1337V16.5H9.04573ZM16.6997 16.5V9.132H14.2157V8.1H20.4437V9.132H17.9717V16.5H16.6997ZM25.603 16.644C24.771 16.644 24.051 16.464 23.443 16.104C22.843 15.736 22.379 15.228 22.051 14.58C21.723 13.924 21.559 13.168 21.559 12.312C21.559 11.448 21.723 10.692 22.051 10.044C22.379 9.388 22.843 8.876 23.443 8.508C24.051 8.14 24.771 7.956 25.603 7.956C26.587 7.956 27.391 8.196 28.015 8.676C28.639 9.156 29.035 9.828 29.203 10.692H27.787C27.675 10.204 27.435 9.816 27.067 9.528C26.699 9.24 26.207 9.096 25.591 9.096C24.751 9.096 24.087 9.384 23.599 9.96C23.111 10.528 22.867 11.312 22.867 12.312C22.867 13.304 23.111 14.084 23.599 14.652C24.087 15.22 24.751 15.504 25.591 15.504C26.207 15.504 26.699 15.368 27.067 15.096C27.435 14.824 27.675 14.452 27.787 13.98H29.203C29.035 14.812 28.639 15.464 28.015 15.936C27.391 16.408 26.587 16.644 25.603 16.644Z" fill="white"/>
</svg>
