<svg width="40" height="26" viewBox="0 0 40 26" fill="none" xmlns="http://www.w3.org/2000/svg">
<rect width="40" height="26" rx="13" fill="#010D50"/>
<path d="M10.959 16.5V9.132H8.47504V8.1H14.703V9.132H12.231V16.5H10.959ZM16.4934 16.5V8.1H19.3854C20.0494 8.1 20.5934 8.212 21.0174 8.436C21.4494 8.66 21.7694 8.964 21.9774 9.348C22.1854 9.724 22.2894 10.144 22.2894 10.608C22.2894 11.128 22.1494 11.6 21.8694 12.024C21.5974 12.448 21.1694 12.752 20.5854 12.936L22.3734 16.5H20.8974L19.2654 13.116H17.7654V16.5H16.4934ZM17.7654 12.156H19.3134C19.8894 12.156 20.3094 12.016 20.5734 11.736C20.8454 11.456 20.9814 11.092 20.9814 10.644C20.9814 10.196 20.8494 9.84 20.5854 9.576C20.3214 9.304 19.8934 9.168 19.3014 9.168H17.7654V12.156ZM23.9742 16.5L26.5662 12.252L23.9502 8.1H25.4022L27.3822 11.244L29.2302 8.1H30.6582L28.0542 12.312L30.6942 16.5H29.2422L27.2502 13.332L25.4022 16.5H23.9742Z" fill="white"/>
</svg>
