<svg width="41" height="26" viewBox="0 0 41 26" fill="none" xmlns="http://www.w3.org/2000/svg">
<rect width="41" height="26" rx="13" fill="#010D50"/>
<path d="M9.1551 16.5V8.1H12.3231C13.1951 8.1 13.8551 8.304 14.3031 8.712C14.7511 9.12 14.9751 9.632 14.9751 10.248C14.9751 10.784 14.8311 11.212 14.5431 11.532C14.2551 11.844 13.9071 12.056 13.4991 12.168C13.8191 12.232 14.1031 12.36 14.3511 12.552C14.6071 12.744 14.8071 12.984 14.9511 13.272C15.0951 13.56 15.1671 13.872 15.1671 14.208C15.1671 14.64 15.0591 15.032 14.8431 15.384C14.6351 15.728 14.3271 16 13.9191 16.2C13.5111 16.4 13.0111 16.5 12.4191 16.5H9.1551ZM10.4271 11.7H12.1671C12.6551 11.7 13.0271 11.588 13.2831 11.364C13.5391 11.132 13.6671 10.816 13.6671 10.416C13.6671 10.024 13.5391 9.712 13.2831 9.48C13.0351 9.248 12.6551 9.132 12.1431 9.132H10.4271V11.7ZM10.4271 15.456H12.2511C12.7631 15.456 13.1591 15.336 13.4391 15.096C13.7271 14.856 13.8711 14.52 13.8711 14.088C13.8711 13.656 13.7231 13.316 13.4271 13.068C13.1311 12.812 12.7311 12.684 12.2271 12.684H10.4271V15.456ZM18.977 16.5V9.132H16.493V8.1H22.721V9.132H20.249V16.5H18.977ZM27.8804 16.644C27.0484 16.644 26.3284 16.464 25.7204 16.104C25.1204 15.736 24.6564 15.228 24.3284 14.58C24.0004 13.924 23.8364 13.168 23.8364 12.312C23.8364 11.448 24.0004 10.692 24.3284 10.044C24.6564 9.388 25.1204 8.876 25.7204 8.508C26.3284 8.14 27.0484 7.956 27.8804 7.956C28.8644 7.956 29.6684 8.196 30.2924 8.676C30.9164 9.156 31.3124 9.828 31.4804 10.692H30.0644C29.9524 10.204 29.7124 9.816 29.3444 9.528C28.9764 9.24 28.4844 9.096 27.8684 9.096C27.0284 9.096 26.3644 9.384 25.8764 9.96C25.3884 10.528 25.1444 11.312 25.1444 12.312C25.1444 13.304 25.3884 14.084 25.8764 14.652C26.3644 15.22 27.0284 15.504 27.8684 15.504C28.4844 15.504 28.9764 15.368 29.3444 15.096C29.7124 14.824 29.9524 14.452 30.0644 13.98H31.4804C31.3124 14.812 30.9164 15.464 30.2924 15.936C29.6684 16.408 28.8644 16.644 27.8804 16.644Z" fill="white"/>
</svg>
